<?xml version="1.0" standalone="no"?>
<!DOCTYPE svg PUBLIC "-//W3C//DTD SVG 20010904//EN"
 "http://www.w3.org/TR/2001/REC-SVG-20010904/DTD/svg10.dtd">
<svg version="1.0" xmlns="http://www.w3.org/2000/svg"
 width="260.000000pt" height="260.000000pt" viewBox="0 0 260.000000 260.000000"
 preserveAspectRatio="xMidYMid meet">
<metadata>
Created by potrace 1.14, written by Peter Selinger 2001-2017
</metadata>
<g transform="translate(0.000000,260.000000) scale(0.100000,-0.100000)"
fill="#000000" stroke="none">
<path d="M341 2323 c-1 -8 -12 -11 -30 -9 -19 2 -32 -2 -35 -10 -3 -8 0 -14 7
-14 8 0 8 -3 -2 -9 -9 -6 -10 -10 -2 -16 9 -5 9 -10 0 -21 -9 -11 -8 -14 2
-14 9 0 10 -3 4 -8 -5 -4 -10 -14 -10 -22 0 -8 5 -18 10 -22 7 -5 6 -8 0 -8
-6 0 -11 -9 -12 -20 -1 -11 2 -18 6 -16 6 4 7 -34 1 -41 -7 -9 -5 -30 4 -42 8
-11 8 -13 -1 -7 -7 4 -13 3 -13 -3 0 -5 4 -12 8 -15 7 -4 8 -51 2 -51 -8 0 -7
-76 0 -80 6 -4 7 -12 3 -18 -12 -19 -10 -247 2 -247 7 0 7 -3 0 -8 -12 -9 -13
-32 -1 -51 6 -10 5 -12 -2 -7 -7 4 -12 3 -12 -3 0 -5 5 -13 10 -16 8 -5 7 -11
-1 -21 -9 -11 -8 -14 2 -14 9 0 10 -3 4 -8 -5 -4 -10 -14 -10 -22 0 -8 5 -18
10 -22 7 -5 6 -8 0 -8 -6 0 -11 -9 -12 -20 -1 -13 2 -18 10 -13 7 4 6 0 -2
-10 -11 -14 -11 -17 0 -17 9 0 10 -3 4 -8 -12 -9 -13 -32 -1 -51 6 -10 5 -12
-2 -7 -7 4 -12 3 -12 -3 0 -5 5 -13 10 -16 8 -5 7 -11 -1 -21 -9 -11 -8 -14 2
-14 9 0 10 -3 4 -8 -5 -4 -10 -14 -10 -22 0 -8 5 -18 10 -22 7 -5 6 -8 0 -8
-6 0 -11 -9 -12 -20 -1 -13 2 -18 10 -13 7 4 6 0 -2 -10 -11 -14 -11 -17 0
-17 9 0 10 -3 4 -8 -12 -9 -13 -32 -1 -51 6 -10 5 -12 -2 -7 -7 4 -12 3 -12
-3 0 -5 5 -13 10 -16 8 -5 7 -11 -1 -21 -9 -11 -8 -14 2 -14 9 0 10 -3 4 -8
-14 -10 -14 -344 0 -354 7 -5 7 -8 -1 -8 -12 0 -12 -29 1 -49 5 -10 4 -12 -3
-7 -7 4 -12 3 -12 -3 0 -5 5 -13 10 -16 8 -5 7 -11 -1 -21 -9 -11 -8 -14 2
-14 9 0 10 -3 4 -8 -5 -4 -10 -14 -10 -22 0 -8 5 -18 10 -22 7 -5 6 -8 0 -8
-6 0 -11 -9 -12 -20 -1 -13 2 -18 10 -13 7 4 6 0 -2 -10 -11 -14 -11 -17 0
-17 9 0 10 -3 4 -8 -12 -9 -13 -32 -1 -51 6 -10 5 -12 -2 -7 -7 4 -12 3 -12
-3 0 -5 4 -12 9 -15 10 -7 9 -31 -2 -42 -3 -3 -1 -12 6 -19 14 -13 45 -14 66
0 9 5 12 4 7 -3 -9 -14 46 -11 56 3 5 7 8 6 8 0 0 -12 95 -14 106 -2 4 3 12 3
18 0 19 -13 40 -12 48 0 5 7 8 8 8 1 0 -12 58 -13 77 -1 6 4 14 3 17 -2 7 -11
55 -9 73 2 6 4 14 3 17 -2 7 -11 25 -9 45 3 9 6 12 5 8 -1 -4 -6 8 -10 28 -10
20 0 32 4 28 10 -4 6 -1 7 7 2 20 -13 120 -13 120 -1 0 6 4 5 9 -2 11 -19 15
-19 34 -4 9 8 21 11 27 7 5 -3 10 -1 10 5 0 6 5 8 10 5 6 -3 10 -2 10 4 0 5 9
13 20 16 11 4 18 11 15 16 -4 5 1 12 9 15 9 3 16 12 16 20 0 8 3 14 8 14 9 0
8 242 -2 258 -4 6 -4 12 1 12 4 0 8 50 8 110 0 61 -4 110 -8 110 -5 0 -5 4 -2
10 3 5 2 10 -3 10 -5 0 -12 9 -15 20 -3 11 -12 20 -21 20 -9 0 -16 7 -16 16 0
10 -6 14 -14 11 -7 -3 -18 -1 -23 4 -5 5 -18 11 -29 14 -10 2 -33 8 -51 14
-17 5 -34 7 -37 3 -3 -3 -6 -1 -6 4 0 5 -12 11 -26 12 -15 1 -32 5 -38 10 -6
4 -18 7 -26 6 -8 -1 -20 -2 -26 -3 -6 0 -17 -14 -24 -31 -7 -16 -16 -30 -21
-30 -5 0 -6 -6 -3 -14 3 -7 -1 -20 -8 -27 -22 -24 -18 -54 9 -55 12 -1 23 1
23 5 0 5 20 5 44 1 24 -3 53 -6 65 -5 11 1 21 -1 21 -5 0 -3 10 -6 21 -7 12
-1 30 -10 40 -19 11 -9 19 -13 19 -9 0 4 8 -2 19 -13 10 -12 24 -22 31 -22 7
0 10 -3 7 -7 -4 -3 4 -16 16 -27 13 -12 22 -27 19 -34 -2 -7 0 -12 5 -12 20 0
2 -117 -24 -156 -13 -20 -22 -24 -59 -22 -24 2 -44 7 -44 11 0 5 -6 7 -12 4
-7 -2 -26 5 -42 16 -19 14 -27 16 -22 6 4 -7 1 -6 -7 3 -8 10 -17 14 -21 10
-4 -4 -14 1 -21 11 -7 10 -16 18 -20 17 -11 -3 -75 39 -75 50 0 5 -3 9 -8 8
-4 -2 -18 7 -32 20 -13 12 -27 22 -32 22 -4 0 -8 5 -8 10 0 6 -8 18 -17 28
-40 41 -61 71 -56 76 4 3 1 6 -4 6 -6 0 -21 21 -34 48 -12 26 -27 50 -33 54
-6 4 -8 8 -3 8 4 0 -1 17 -12 38 -10 20 -19 40 -20 45 -7 52 -15 86 -20 82 -4
-2 -6 16 -6 41 1 24 -2 44 -8 44 -5 0 -6 8 -2 18 8 19 8 24 1 70 -4 22 -2 30
6 26 7 -5 8 -2 2 7 -12 20 -14 39 -3 39 11 0 7 23 -6 32 -6 5 -5 8 4 8 7 0 11
6 7 15 -3 8 -2 15 2 15 4 0 8 15 9 33 5 56 8 72 16 78 5 3 10 15 12 25 2 10 4
20 5 22 2 1 3 5 4 10 1 4 5 13 9 20 5 6 5 17 2 22 -3 6 -1 10 4 10 6 0 11 7
11 15 0 8 4 15 10 15 5 0 12 11 16 25 3 14 10 25 15 25 5 0 9 6 9 14 0 7 11
25 25 40 14 15 25 30 25 33 0 10 156 153 167 153 3 0 17 9 33 20 15 11 30 17
34 13 3 -3 6 -1 6 5 0 7 5 12 10 12 6 0 29 9 52 20 22 11 45 17 49 14 5 -3 9
-1 9 5 0 5 8 10 18 10 36 1 52 5 52 11 0 4 10 6 23 5 12 -1 28 3 36 9 12 9 13
8 7 -2 -7 -11 -4 -12 10 -4 25 13 204 12 204 0 0 -6 7 -5 15 2 8 7 15 8 15 3
0 -5 8 -9 18 -10 47 -2 87 -12 137 -33 11 -5 37 -14 58 -21 20 -7 37 -17 37
-21 0 -4 9 -8 20 -8 11 0 20 -7 20 -15 0 -8 3 -14 8 -13 12 3 72 -32 72 -43 0
-5 7 -12 15 -15 18 -7 100 -84 90 -84 -5 0 5 -11 21 -25 16 -14 25 -25 21 -25
-4 0 1 -10 12 -22 11 -11 18 -25 15 -30 -3 -4 2 -8 10 -8 9 0 16 -9 16 -20 0
-11 5 -20 10 -20 6 0 9 -3 8 -7 0 -5 6 -24 15 -43 8 -19 13 -38 11 -42 -3 -5
0 -8 5 -8 6 0 11 -8 11 -18 0 -10 3 -22 7 -26 7 -6 9 -20 16 -82 2 -16 6 -35
10 -40 6 -10 11 -143 8 -217 -1 -28 -4 -36 -13 -31 -10 6 -10 4 0 -8 8 -10 9
-19 3 -22 -5 -4 -8 -15 -6 -26 2 -11 1 -20 -3 -20 -4 0 -9 -9 -10 -20 -4 -44
-6 -50 -14 -50 -5 0 -7 -4 -3 -9 3 -5 1 -12 -5 -16 -6 -4 -8 -11 -5 -16 4 -5
1 -9 -5 -9 -6 0 -8 -4 -5 -10 3 -5 1 -10 -5 -10 -6 0 -9 -4 -6 -9 3 -5 -4 -21
-17 -37 -12 -16 -21 -31 -19 -34 1 -3 -5 -13 -13 -23 -8 -9 -15 -22 -15 -27 0
-6 -4 -10 -8 -10 -5 0 -15 -11 -22 -25 -7 -13 -18 -22 -23 -18 -6 3 -7 2 -4
-4 6 -9 -26 -41 -103 -102 -14 -12 -30 -25 -36 -30 -7 -5 -15 -7 -18 -4 -3 4
-6 2 -6 -4 0 -10 -36 -26 -52 -24 -5 1 -8 -3 -8 -7 0 -9 -70 -38 -82 -34 -4 1
-8 -2 -8 -6 0 -5 -6 -9 -12 -10 -23 -2 -43 -7 -55 -15 -7 -5 -13 -6 -13 -3 0
3 -11 1 -25 -4 -18 -7 -28 -5 -38 5 -8 8 -18 11 -22 7 -4 -4 -2 3 4 16 8 15 8
22 1 22 -6 0 -8 5 -5 11 10 16 13 59 5 59 -10 0 -8 20 3 38 5 7 3 12 -4 12 -8
0 -9 3 0 13 6 8 8 17 5 20 -3 3 -1 12 5 19 36 42 61 68 61 64 0 -3 21 8 46 24
26 16 51 27 55 24 5 -3 9 -1 9 5 0 6 7 7 17 4 9 -4 14 -2 10 4 -3 5 2 9 11 9
9 0 54 1 99 2 l82 2 -9 30 c-5 17 -6 30 -4 30 3 0 -2 7 -10 16 -9 8 -14 20
-11 25 4 5 1 9 -5 9 -7 0 -10 7 -6 15 3 9 0 15 -10 15 -8 0 -13 4 -9 9 6 10
-41 8 -51 -2 -3 -3 -13 -3 -22 0 -9 4 -13 2 -9 -4 4 -6 -3 -9 -18 -7 -14 1
-27 -2 -31 -7 -3 -5 -10 -7 -15 -4 -5 4 -9 1 -9 -5 0 -6 -4 -8 -10 -5 -5 3
-10 0 -10 -7 0 -11 -2 -11 -9 0 -6 10 -10 10 -21 -2 -7 -9 -16 -14 -20 -11 -4
3 -13 -2 -20 -10 -7 -8 -16 -12 -21 -9 -5 3 -9 1 -9 -3 0 -5 -14 -17 -30 -27
-17 -9 -28 -21 -26 -25 3 -4 -1 -8 -9 -8 -8 0 -12 4 -9 9 3 4 1 8 -4 8 -5 0
-8 10 -6 23 1 12 3 22 4 22 1 0 3 7 5 16 7 37 39 69 88 88 29 10 54 15 55 10
3 -6 8 -6 15 0 13 10 17 11 43 11 9 0 12 5 8 13 -5 9 -4 9 6 0 13 -12 46 -1
62 22 5 6 8 4 8 -5 0 -9 3 -11 8 -5 4 6 23 22 42 35 43 30 100 87 100 100 0 6
5 10 11 10 5 0 7 5 4 10 -3 6 1 13 10 16 9 4 14 13 11 20 -3 8 -2 14 3 14 9 0
26 48 23 63 -1 4 2 7 6 7 4 0 8 8 8 18 1 9 3 24 5 32 2 8 -2 14 -8 12 -7 -1
-13 2 -13 7 0 9 -57 7 -67 -3 -3 -3 -12 -1 -20 5 -7 6 -13 7 -13 2 0 -13 -43
-11 -52 2 -5 7 -8 7 -8 0 0 -9 -29 -14 -92 -16 -10 0 -18 -4 -18 -10 0 -5 -7
-9 -16 -9 -22 0 -125 -70 -118 -81 3 -5 0 -9 -5 -9 -13 0 -66 -81 -63 -94 2
-5 -2 -22 -7 -38 -6 -18 -7 -26 -1 -23 6 4 9 -4 7 -17 -2 -13 -8 -23 -13 -23
-5 0 -35 -25 -66 -56 -56 -54 -58 -58 -56 -105 1 -27 -1 -55 -5 -61 -5 -7 -4
-13 2 -13 6 0 11 -5 11 -11 0 -5 -6 -7 -12 -3 -10 6 -10 4 0 -8 10 -12 10 -18
1 -23 -8 -6 -7 -10 2 -16 12 -8 12 -10 0 -18 -8 -5 -9 -11 -3 -15 12 -7 11
-24 -2 -45 -6 -10 -5 -12 2 -7 8 5 12 -1 12 -14 0 -13 -4 -19 -12 -14 -7 5 -8
3 -2 -7 14 -23 17 -62 3 -53 -8 5 -9 3 -4 -7 13 -21 15 -120 3 -113 -7 5 -8 2
-3 -7 13 -20 15 -120 3 -113 -6 4 -6 -1 1 -13 6 -11 7 -23 4 -27 -3 -3 -2 -6
3 -6 5 0 10 -10 11 -22 1 -11 7 -24 13 -28 7 -4 11 -10 11 -14 -1 -3 1 -5 3
-3 2 1 14 -7 27 -18 13 -12 19 -14 14 -5 -7 12 -6 13 6 4 15 -12 87 -13 105
-1 6 3 14 3 18 0 12 -12 40 -12 48 0 5 7 8 8 8 1 0 -12 58 -13 77 -1 6 4 14 3
17 -2 7 -11 55 -9 73 2 6 4 14 3 17 -2 7 -11 25 -9 45 3 9 6 12 5 8 -1 -4 -6
8 -10 28 -10 20 0 32 4 28 10 -4 6 -1 7 7 2 21 -13 113 -13 129 -1 11 8 13 8
8 -1 -9 -15 44 -13 55 2 5 6 8 6 8 -1 0 -13 68 -13 89 0 9 6 12 5 8 -1 -4 -7
5 -10 23 -9 17 0 30 5 30 11 0 7 3 6 8 0 9 -13 72 -14 72 -2 0 5 7 4 15 -3 8
-7 16 -9 16 -4 6 40 5 54 -5 54 -7 0 -7 3 -1 8 15 11 17 32 3 32 -10 0 -10 2
0 9 17 11 17 21 0 32 -7 5 -8 9 -2 9 12 0 12 28 1 47 -4 6 -3 14 3 18 5 3 10
11 10 16 0 6 -5 7 -11 3 -8 -5 -8 -1 0 14 8 15 8 22 -2 25 -9 4 -8 6 2 6 11 1
11 4 0 18 -12 14 -12 15 -1 9 11 -7 12 -4 3 13 -9 16 -9 21 0 21 9 0 9 3 0 14
-9 11 -9 16 0 21 8 6 7 10 -2 16 -11 7 -11 9 1 9 13 0 13 1 0 10 -13 9 -13 10
0 10 13 0 13 1 0 10 -13 9 -13 10 0 10 13 0 13 1 0 10 -13 9 -13 10 0 10 13 0
13 1 0 10 -10 6 -11 10 -2 10 6 0 12 5 12 11 0 5 -4 8 -8 5 -5 -3 -9 1 -9 9 0
8 5 15 10 15 5 0 4 7 -3 15 -10 12 -10 15 1 15 12 0 12 2 0 9 -9 6 -10 10 -2
16 9 5 9 10 1 20 -8 10 -7 14 2 18 10 4 10 6 1 6 -7 1 -13 6 -13 12 0 5 6 7
13 3 8 -5 8 -2 -2 9 -11 14 -11 17 0 17 11 0 11 2 -1 10 -13 9 -13 10 0 10 13
0 13 1 0 10 -13 9 -13 10 0 10 13 0 13 1 0 10 -13 9 -13 10 0 10 13 0 13 1 0
10 -13 9 -13 10 0 10 12 0 13 2 1 9 -11 7 -11 9 0 14 11 4 11 6 -1 6 -13 1
-13 2 0 11 13 9 13 10 0 10 -13 0 -13 2 -1 9 12 8 12 12 2 25 -11 13 -11 16 0
16 12 0 12 2 0 9 -9 6 -10 10 -2 16 9 5 9 10 0 21 -9 11 -9 14 1 14 10 0 10 3
1 14 -9 11 -9 15 1 19 10 4 10 6 1 6 -7 1 -13 6 -13 12 0 5 6 7 13 3 8 -5 8
-2 -2 9 -11 14 -11 17 0 17 11 0 11 2 -1 10 -13 9 -13 10 0 10 13 0 13 1 0 10
-13 9 -13 10 0 10 13 0 13 1 0 10 -13 9 -13 10 0 10 13 0 13 1 0 10 -13 9 -13
10 0 10 13 0 13 1 0 10 -13 9 -13 10 0 10 13 0 13 1 0 10 -13 9 -13 10 0 10
12 0 13 2 1 9 -11 7 -11 9 0 13 12 4 12 7 0 21 -11 14 -11 17 0 17 12 0 12 2
0 9 -7 5 -9 11 -4 14 11 7 11 37 -1 55 -4 7 -2 12 6 12 10 0 10 2 -1 9 -11 7
-11 9 0 14 12 5 12 6 0 6 -11 1 -11 4 -1 16 10 12 10 15 -1 15 -12 0 -12 2 0
9 9 6 10 10 2 16 -9 5 -9 11 0 22 10 12 10 16 -2 24 -10 6 -10 9 -1 9 14 0 12
21 -3 32 -6 5 -6 8 1 8 12 0 12 28 1 47 -4 6 -2 15 4 19 8 4 7 9 -2 15 -10 6
-11 9 -1 9 6 0 12 7 12 15 0 8 -6 15 -12 15 -10 0 -9 3 1 9 9 6 10 11 2 15 -8
5 -8 13 -1 27 8 14 7 19 -2 19 -10 0 -10 2 0 9 17 11 17 21 0 32 -7 5 -8 9 -2
9 6 0 11 7 11 15 0 8 -5 15 -11 15 -6 0 -5 4 2 9 17 11 17 21 0 32 -7 5 -8 9
-2 9 12 0 12 28 1 47 -4 6 -2 15 4 19 8 4 7 9 -2 15 -10 6 -11 9 -1 9 6 0 12
7 12 15 0 8 -6 15 -12 15 -10 0 -9 3 1 9 9 6 10 11 2 15 -8 5 -8 13 -1 27 8
14 7 19 -2 19 -10 0 -10 2 0 9 17 11 17 21 0 32 -8 6 -9 9 -1 9 9 0 11 19 3
40 -1 3 -2 8 -1 12 0 4 -7 4 -16 1 -12 -5 -14 -3 -8 8 7 12 6 12 -7 1 -13 -10
-17 -10 -21 0 -4 10 -6 10 -6 1 -1 -7 -10 -13 -22 -13 -13 0 -18 4 -13 12 5 7
3 8 -7 2 -24 -14 -51 -16 -43 -2 6 10 4 11 -7 1 -16 -16 -33 -17 -23 -1 5 7 3
8 -7 2 -24 -14 -51 -16 -43 -2 6 10 4 11 -7 1 -16 -16 -33 -17 -23 -1 5 7 3 8
-7 2 -24 -14 -51 -16 -43 -2 6 10 4 11 -7 1 -16 -16 -33 -17 -23 -1 5 7 3 8
-7 2 -24 -14 -51 -16 -43 -2 6 10 4 10 -8 0 -13 -10 -17 -10 -21 0 -4 10 -6
10 -6 1 -1 -7 -10 -13 -22 -13 -13 0 -18 4 -13 12 5 7 3 8 -7 2 -24 -14 -51
-16 -43 -2 6 10 4 10 -8 0 -13 -10 -17 -10 -21 0 -4 10 -6 10 -6 1 -1 -7 -10
-13 -22 -13 -13 0 -18 4 -13 13 6 9 4 9 -7 0 -16 -16 -33 -17 -23 -1 5 7 3 8
-7 2 -19 -12 -33 -12 -41 1 -5 6 -8 6 -8 -2 0 -7 -9 -13 -21 -13 -13 0 -18 4
-13 12 5 7 3 8 -7 2 -24 -14 -51 -16 -43 -2 6 10 4 10 -8 0 -13 -10 -17 -10
-21 0 -4 10 -6 10 -6 1 -1 -7 -10 -13 -22 -13 -13 0 -18 4 -13 13 6 10 4 10
-7 0 -7 -7 -17 -13 -22 -13 -4 0 -5 6 -1 13 5 7 0 6 -11 -3 -21 -17 -24 -17
-36 2 -7 10 -9 10 -9 1 0 -7 -9 -13 -21 -13 -13 0 -18 4 -13 12 5 7 3 8 -7 2
-24 -14 -51 -16 -43 -2 6 10 4 10 -8 0 -13 -10 -17 -10 -21 0 -4 10 -6 10 -6
1 -1 -7 -10 -13 -22 -13 -13 0 -18 4 -13 12 5 7 3 8 -7 2 -24 -14 -51 -16 -43
-2 6 10 4 11 -7 1 -16 -16 -33 -17 -23 -1 5 7 3 8 -7 2 -24 -14 -51 -16 -43
-2 6 10 4 11 -7 1 -16 -16 -33 -17 -23 -1 5 7 3 8 -7 2 -24 -14 -51 -16 -43
-2 6 10 4 11 -7 1 -16 -16 -33 -17 -23 -1 5 7 3 8 -7 2 -24 -14 -51 -16 -43
-2 6 10 4 10 -8 0 -13 -10 -17 -10 -21 0 -4 10 -6 10 -6 1 -1 -7 -10 -13 -22
-13 -13 0 -18 4 -13 12 5 7 3 8 -7 2 -24 -14 -51 -16 -43 -2 6 10 4 10 -8 0
-13 -10 -17 -10 -21 0 -4 10 -6 10 -6 1 -1 -7 -10 -13 -22 -13 -13 0 -18 4
-13 13 6 10 4 10 -7 0 -7 -7 -17 -13 -22 -13 -4 0 -5 6 -1 13 6 9 5 9 -7 0
-20 -16 -31 -17 -40 -1 -7 10 -9 10 -9 1 0 -7 -9 -13 -21 -13 -13 0 -18 4 -13
12 5 7 3 8 -7 2 -24 -14 -51 -16 -43 -2 6 10 4 10 -8 0 -13 -10 -17 -10 -21 0
-4 10 -6 10 -6 1 -1 -7 -10 -13 -22 -13 -13 0 -18 4 -13 13 6 10 4 10 -7 0 -7
-7 -17 -13 -22 -13 -4 0 -5 6 -1 13 6 9 5 9 -7 0 -20 -16 -31 -17 -40 -1 -7
10 -9 10 -9 1 0 -7 -9 -13 -21 -13 -13 0 -18 4 -13 12 5 7 3 8 -7 2 -24 -14
-51 -16 -43 -2 6 10 4 10 -8 0 -13 -10 -17 -10 -21 0 -4 10 -6 10 -6 1z"/>
<path d="M1275 1900 c-4 -6 -9 -9 -13 -6 -4 2 -17 -7 -30 -20 -12 -13 -20 -24
-16 -24 4 0 -3 -8 -14 -19 -12 -10 -22 -23 -22 -29 0 -6 -4 -12 -8 -14 -4 -1
-19 -28 -32 -58 -19 -45 -24 -74 -25 -153 -1 -54 2 -100 7 -103 4 -3 8 -14 8
-25 0 -10 5 -19 10 -19 6 0 9 -3 8 -7 -4 -12 26 -73 34 -73 5 0 8 -6 8 -14 0
-8 7 -17 16 -20 8 -3 12 -11 8 -17 -4 -7 -3 -9 4 -5 6 3 14 0 19 -7 13 -22 68
-37 83 -24 10 9 11 9 5 -3 -5 -8 15 8 43 36 29 29 52 56 52 62 0 6 4 12 9 14
5 2 11 10 13 18 2 8 9 21 16 29 7 7 11 20 8 27 -3 8 -1 14 4 14 5 0 7 9 5 20
-2 11 0 20 5 20 4 0 7 11 5 25 -1 14 2 25 7 25 5 0 6 5 2 12 -5 7 -8 28 -7 48
0 19 -4 41 -9 48 -6 6 -8 12 -4 12 3 0 -3 22 -13 49 -10 28 -16 53 -12 57 3 4
0 4 -6 0 -8 -4 -13 -1 -13 8 0 9 -5 16 -11 16 -5 0 -8 4 -5 9 3 5 -1 11 -9 15
-8 3 -15 13 -15 22 0 10 -3 15 -6 11 -3 -3 -20 8 -36 24 -31 29 -62 37 -73 19z"/>
<path d="M679 1444 c-5 -36 -5 -54 0 -54 4 0 7 -10 9 -23 3 -39 64 -162 75
-151 4 4 7 3 7 -3 0 -17 97 -105 120 -109 3 0 18 -6 33 -12 16 -7 33 -12 38
-12 5 0 9 -6 9 -12 0 -9 4 -8 10 2 7 12 10 12 10 1 0 -7 6 -11 15 -8 8 4 17 2
20 -3 3 -5 15 -6 28 -4 12 3 28 6 35 6 6 1 12 5 12 10 0 4 7 8 15 8 8 0 15 5
15 11 0 5 4 8 9 4 5 -3 12 4 16 15 3 11 10 20 15 20 15 0 22 40 10 55 -7 8 -9
15 -6 15 4 0 1 10 -6 23 -7 12 -13 24 -13 27 -2 13 -30 57 -46 71 -10 9 -16
19 -12 23 3 3 0 6 -8 6 -8 0 -21 9 -29 19 -7 11 -17 18 -22 15 -4 -3 -8 0 -8
6 0 6 -4 8 -10 5 -5 -3 -10 -1 -10 4 0 6 -9 11 -20 11 -11 0 -20 4 -20 8 0 4
-12 9 -27 10 -44 4 -62 8 -69 14 -3 4 -17 3 -30 -2 -15 -6 -24 -6 -24 0 0 6
-9 6 -25 0 -14 -5 -25 -6 -25 -1 0 9 -48 6 -57 -3 -4 -3 -12 -1 -20 5 -7 6
-14 8 -14 3z"/>
</g>
</svg>
